<svg width="1920" height="1080" viewBox="0 0 1920 1080" fill="none" xmlns="http://www.w3.org/2000/svg">
<rect width="1920" height="1080" fill="white"/>
<path fill-rule="evenodd" clip-rule="evenodd" d="M0 462.841C0 462.841 65.7266 415.049 170.5 429.841C255.5 441.841 343 464.06 407.5 500.841C528.5 569.841 563.789 592.269 662 656.341C700.06 681.17 732.942 704.091 764.076 725.793C814.901 761.222 861.068 793.403 917.5 825.34C935.453 835.5 952.802 845.648 969.9 855.65C1054.87 905.354 1133.65 951.432 1249.5 977.341C1361 1002.28 1491.18 1022.44 1634 977.341C1757.86 938.23 1920 794.34 1920 794.34V863.34C1920 863.34 1815 993.187 1776.5 1029.34C1771.97 1033.59 1767.53 1037.78 1763.15 1041.91C1748.91 1055.33 1735.41 1068.05 1722.15 1080H901.291C847.553 1052.48 801.785 1024.3 755.654 995.896C700.789 962.113 645.41 928.014 575.5 894.34C567.17 890.328 558.751 886.253 550.252 882.139C444.371 830.883 326.03 773.596 212 757.34C121.337 744.416 96.634 754.526 44.4939 775.862C31.7545 781.076 17.3773 786.959 0 793.34V625.341V462.841Z" fill="#D8EFFF"/>
</svg>
