<svg width="1920" height="768" viewBox="0 0 1920 768" fill="none" xmlns="http://www.w3.org/2000/svg">
<rect width="1920" height="768" fill="white"/>
<path fill-rule="evenodd" clip-rule="evenodd" d="M0 150.841C0 150.841 65.7266 103.049 170.5 117.841C255.5 129.841 343 152.06 407.5 188.841C528.5 257.841 563.789 280.269 662 344.341C700.06 369.17 732.942 392.091 764.076 413.793C814.901 449.222 861.068 481.403 917.5 513.34C935.453 523.5 952.802 533.648 969.9 543.65C1054.87 593.354 1133.65 639.432 1249.5 665.341C1361 690.277 1491.18 710.438 1634 665.341C1757.86 626.23 1920 482.34 1920 482.34V551.34C1920 551.34 1815 681.187 1776.5 717.341C1771.97 721.594 1767.53 725.783 1763.15 729.907C1748.91 743.328 1735.41 756.054 1722.15 768H901.291C847.553 740.483 801.785 712.301 755.654 683.896C700.789 650.113 645.41 616.014 575.5 582.34C567.17 578.328 558.751 574.253 550.252 570.139C444.371 518.883 326.03 461.596 212 445.34C121.337 432.416 96.634 442.526 44.4939 463.862C31.7545 469.076 17.3773 474.959 0 481.34V313.341V150.841Z" fill="#D8EFFF"/>
</svg>
