<svg width="1920" height="768" viewBox="0 0 1920 768" fill="none" xmlns="http://www.w3.org/2000/svg">
<rect width="1920" height="768" fill="white"/>
<path fill-rule="evenodd" clip-rule="evenodd" d="M0 280.388C0 280.388 65.7266 249.201 170.5 258.854C255.5 266.684 343 281.183 407.5 305.185C528.5 350.211 563.789 364.847 662 406.656C700.06 422.859 732.942 437.816 764.075 451.978C814.901 475.097 861.068 496.097 917.5 516.937C935.453 523.567 952.802 530.189 969.9 536.716C1054.87 569.15 1133.65 599.219 1249.5 616.125C1361 632.397 1491.18 645.553 1634 616.125C1757.86 590.603 1920 496.708 1920 496.708V541.734C1920 541.734 1815 626.466 1776.5 650.058C1771.97 652.833 1767.53 655.567 1763.15 658.258C1701.13 696.406 1653.12 725.934 1578 742.394C1498.49 759.815 1426.07 767.982 1354.39 768C1354.23 768 1354.08 768 1353.92 768C1240.5 767.972 1128.9 747.54 994 711.071C895.639 684.48 826.069 656.527 755.654 628.233C700.789 606.188 645.41 583.937 575.5 561.963C567.17 559.345 558.751 556.686 550.252 554.001C444.372 520.554 326.03 483.171 212 472.564C121.337 464.13 96.634 470.727 44.4939 484.65C31.7545 488.052 17.3773 491.891 0 496.056V386.427V280.388Z" fill="#D8EFFF"/>
</svg>
