<svg width="1920" height="1025" viewBox="0 0 1920 1025" fill="none" xmlns="http://www.w3.org/2000/svg">
<rect width="1920" height="1024" fill="white"/>
<path d="M170.5 243.841C65.7266 229.049 0 276.841 0 276.841V439.341V607.34C88.5 574.84 99.186 555.259 212 571.34C335.183 588.9 463.398 654.344 575.5 708.34C735.135 785.232 819 864.341 994 936.841C1214.32 1028.12 1372.5 1053.84 1578 984.841C1658.42 957.837 1707.77 907.884 1776.5 843.341C1815 807.187 1920 677.34 1920 677.34V608.34C1920 608.34 1757.86 752.23 1634 791.341C1491.18 836.438 1361 816.277 1249.5 791.341C1110.34 760.219 1024.67 699.994 917.5 639.34C826.5 587.84 762.195 535.706 662 470.341C563.789 406.269 528.5 383.841 407.5 314.841C343 278.06 255.5 255.841 170.5 243.841Z" fill="#D8EFFF"/>
</svg>
